<svg xmlns="http://www.w3.org/2000/svg" viewBox="0 0 24 24">
  <defs>
    <linearGradient id="botGrad" x1="0%" y1="0%" x2="100%" y2="100%">
      <stop offset="0%" stop-color="#2dd4a8" />
      <stop offset="100%" stop-color="#059669" />
    </linearGradient>
  </defs>
  <rect width="24" height="24" rx="8" fill="url(#botGrad)" fill-opacity="0.15"/>
  <path fill="url(#botGrad)" d="M19 8h-2V6c0-1.1-.9-2-2-2H9C7.9 4 7 4.9 7 6v2H5c-1.1 0-2 .9-2 2v8c0 1.1.9 2 2 2h14c1.1 0 2-.9 2-2v-8c0-1.1-.9-2-2-2zm-7 8v-2H9v-2h3v-2h2v2h3v2h-3v2h-2z"/>
</svg>
